<?xml version="1.0" encoding="UTF-8"?>
<svg xmlns="http://www.w3.org/2000/svg" xmlns:xlink="http://www.w3.org/1999/xlink" width="841.889893pt" height="595.28pt" viewBox="0 0 841.889893 595.28" version="1.1">
<g id="surface1">
<path style=" stroke:none;fill-rule:nonzero;fill:rgb(100%,100%,100%);fill-opacity:1;" d="M 0 595.28125 L 841.890625 595.28125 L 841.890625 0.00390625 L 0 0.00390625 Z M 0 595.28125 "/>
<path style=" stroke:none;fill-rule:nonzero;fill:rgb(14.898682%,67.498779%,43.099976%);fill-opacity:1;" d="M 63.820313 277.445313 L 775.625 277.445313 L 775.625 253.835938 L 63.820313 253.835938 Z M 63.820313 277.445313 "/>
<path style=" stroke:none;fill-rule:nonzero;fill:rgb(14.898682%,67.498779%,43.099976%);fill-opacity:1;" d="M 63.820313 303.835938 L 775.625 303.835938 L 775.625 289.945313 L 63.820313 289.945313 Z M 63.820313 303.835938 "/>
<path style=" stroke:none;fill-rule:nonzero;fill:rgb(17.298889%,64.299011%,86.698914%);fill-opacity:1;" d="M 88.472656 385.613281 C 72.675781 385.613281 59.820313 372.761719 59.820313 356.960938 C 59.820313 341.160156 72.675781 328.308594 88.472656 328.308594 L 372.332031 328.308594 L 416.351563 284.289063 L 460.367188 328.308594 L 750.972656 328.308594 C 766.773438 328.308594 779.628906 341.160156 779.628906 356.960938 C 779.628906 372.761719 766.773438 385.613281 750.972656 385.613281 "/>
<path style=" stroke:none;fill-rule:nonzero;fill:rgb(100%,100%,100%);fill-opacity:1;" d="M 416.347656 278.632813 L 410.691406 284.289063 L 370.675781 324.308594 L 88.472656 324.308594 C 70.46875 324.308594 55.820313 338.957031 55.820313 356.960938 C 55.820313 374.964844 70.46875 389.613281 88.472656 389.613281 L 750.972656 389.613281 C 768.980469 389.613281 783.628906 374.964844 783.628906 356.960938 C 783.628906 338.957031 768.980469 324.308594 750.972656 324.308594 L 462.023438 324.308594 L 422.007813 284.289063 Z M 416.347656 289.949219 L 458.710938 332.308594 L 750.972656 332.308594 C 764.589844 332.308594 775.628906 343.34375 775.628906 356.960938 C 775.628906 370.574219 764.589844 381.613281 750.972656 381.613281 L 88.472656 381.613281 C 74.859375 381.613281 63.820313 370.574219 63.820313 356.960938 C 63.820313 343.34375 74.859375 332.308594 88.472656 332.308594 L 373.988281 332.308594 L 416.347656 289.949219 "/>
<path style=" stroke:none;fill-rule:nonzero;fill:rgb(10.998535%,10.998535%,10.598755%);fill-opacity:1;" d="M 82.84375 242.429688 L 78.167969 239.175781 L 75.046875 243.820313 L 80.261719 247.257813 L 82.710938 243.449219 L 87.65625 246.421875 L 90.953125 241.730469 L 85.832031 238.109375 "/>
<path style=" stroke:none;fill-rule:nonzero;fill:rgb(10.998535%,10.998535%,10.598755%);fill-opacity:1;" d="M 178.8125 155.953125 C 176.96875 157.625 175.738281 159.035156 175.113281 160.179688 C 174.488281 161.324219 174.179688 162.78125 174.179688 164.546875 C 174.179688 166.960938 174.90625 172.371094 176.363281 180.777344 C 177.816406 189.183594 178.546875 194.6875 178.546875 197.285156 C 178.546875 199.113281 178.179688 200.328125 177.453125 200.933594 C 176.726563 201.535156 175.484375 201.839844 173.734375 201.839844 L 100.976563 201.839844 C 99.375 201.839844 97.816406 202.09375 96.300781 202.605469 C 94.785156 203.113281 93.300781 204.191406 91.84375 205.832031 C 88.875 209.207031 87.390625 212.90625 87.390625 216.933594 C 87.390625 220.460938 89.855469 222.425781 94.785156 222.828125 C 99.953125 223.261719 102.539063 223.742188 102.539063 224.269531 C 102.539063 224.796875 102.019531 225.238281 100.976563 225.59375 C 99.9375 225.949219 98.378906 226.359375 96.300781 226.824219 C 94.308594 227.257813 92.3125 227.511719 90.308594 227.589844 C 88.300781 227.667969 86.261719 227.707031 84.179688 227.707031 C 81.65625 227.707031 79.355469 227.433594 77.277344 226.894531 C 75.195313 226.351563 73.40625 225.570313 71.90625 224.546875 C 70.40625 223.527344 69.25 222.28125 68.433594 220.808594 C 67.613281 219.339844 67.207031 217.691406 67.207031 215.863281 C 67.207031 213.015625 68.113281 209.5625 69.925781 205.507813 L 68.589844 204.625 C 67.015625 208.246094 65.824219 211.46875 65.023438 214.285156 C 64.222656 217.101563 63.820313 219.824219 63.820313 222.457031 C 63.820313 224.8125 64.246094 226.894531 65.089844 228.703125 C 65.9375 230.515625 67.132813 232.039063 68.675781 233.277344 C 70.222656 234.515625 72.09375 235.453125 74.289063 236.089844 C 76.488281 236.722656 78.941406 237.039063 81.640625 237.039063 C 84.433594 237.039063 87.269531 236.746094 90.152344 236.15625 C 93.03125 235.570313 95.839844 234.515625 98.570313 233 C 99.996094 232.226563 101.214844 231.496094 102.226563 230.816406 C 103.234375 230.136719 104.058594 229.453125 104.699219 228.773438 C 105.335938 228.09375 105.8125 227.371094 106.125 226.613281 C 106.4375 225.855469 106.59375 225.011719 106.59375 224.085938 C 106.59375 223.03125 106.449219 222.117188 106.167969 221.34375 C 105.886719 220.570313 105.328125 219.839844 104.496094 219.160156 C 103.664063 218.480469 102.472656 217.8125 100.910156 217.164063 C 99.351563 216.515625 97.308594 215.769531 94.785156 214.933594 C 94.101563 214.6875 93.582031 214.507813 93.226563 214.402344 C 92.871094 214.292969 92.691406 214.082031 92.691406 213.773438 C 92.691406 213.0625 93.351563 212.613281 94.671875 212.425781 C 95.996094 212.242188 98.007813 212.148438 100.710938 212.148438 L 173.734375 212.148438 C 176.464844 212.148438 178.738281 210.878906 180.550781 208.339844 C 182.449219 205.617188 183.402344 202.023438 183.402344 197.566406 C 183.402344 194.65625 182.910156 189.957031 181.929688 183.472656 C 180.949219 176.984375 180.460938 172.859375 180.460938 171.09375 C 180.460938 168.429688 181.617188 165.953125 183.9375 163.664063 C 181.53125 160.847656 179.820313 158.277344 178.8125 155.953125 "/>
<path style=" stroke:none;fill-rule:nonzero;fill:rgb(10.998535%,10.998535%,10.598755%);fill-opacity:1;" d="M 248.003906 181.125 C 244.882813 179.515625 243.324219 178.277344 243.324219 177.410156 C 243.324219 176.109375 253.007813 172.457031 272.371094 166.449219 C 274.035156 165.921875 275.476563 164.699219 276.695313 162.78125 C 277.316406 161.789063 278.503906 159.296875 280.257813 155.304688 C 268.644531 157.875 257.046875 162.472656 245.460938 169.097656 C 243.621094 170.148438 242.402344 171.15625 241.808594 172.117188 C 241.125 173.167969 240.785156 174.730469 240.785156 176.808594 C 240.785156 181.824219 241.082031 185.058594 241.675781 186.511719 C 242.148438 187.660156 243.53125 188.710938 245.820313 189.671875 C 248.96875 191.003906 251.804688 192.558594 254.328125 194.339844 C 256.851563 196.117188 258.113281 197.488281 258.113281 198.449219 C 258.113281 200.710938 253.46875 201.839844 244.171875 201.839844 L 203.316406 201.839844 C 201 201.839844 199.722656 199.6875 199.484375 195.382813 C 199.335938 192.597656 198.90625 187.566406 198.191406 180.289063 C 197.449219 172.703125 196.871094 167.671875 196.453125 165.195313 C 194.582031 167.363281 193.425781 168.804688 192.980469 169.515625 C 192.175781 170.785156 191.777344 172.101563 191.777344 173.460938 C 191.777344 174.296875 192.089844 176.28125 192.710938 179.40625 C 193.484375 183.402344 194.152344 189.019531 194.71875 196.265625 C 195.160156 201.960938 195.933594 205.941406 197.035156 208.199219 C 198.308594 210.832031 200.402344 212.148438 203.316406 212.148438 L 244.171875 212.148438 C 250.023438 212.148438 254.269531 211.1875 256.914063 209.269531 C 259.554688 207.351563 260.878906 204.238281 260.878906 199.933594 C 260.878906 191.851563 256.585938 185.585938 248.003906 181.125 "/>
<path style=" stroke:none;fill-rule:nonzero;fill:rgb(10.998535%,10.998535%,10.598755%);fill-opacity:1;" d="M 311.402344 155.953125 C 309.558594 157.625 308.328125 159.035156 307.703125 160.179688 C 307.078125 161.324219 306.769531 162.78125 306.769531 164.546875 C 306.769531 166.960938 307.496094 172.371094 308.949219 180.777344 C 310.40625 189.183594 311.132813 194.6875 311.132813 197.285156 C 311.132813 199.113281 310.769531 200.328125 310.042969 200.933594 C 309.3125 201.535156 308.074219 201.839844 306.320313 201.839844 L 300.085938 201.839844 C 297.796875 201.839844 296.148438 199.40625 295.140625 194.546875 L 293.488281 186.511719 C 292.6875 182.609375 292.019531 177.101563 291.484375 169.980469 C 288.425781 173.851563 286.894531 176.960938 286.894531 179.3125 C 286.894531 180.863281 287.261719 183.648438 287.988281 187.675781 C 288.714844 191.699219 289.078125 194.359375 289.078125 195.660156 C 289.078125 197.519531 288.492188 198.796875 287.320313 199.492188 C 286.144531 200.191406 283.972656 200.539063 280.792969 200.539063 C 276.664063 200.539063 274.140625 198.882813 273.21875 195.570313 L 272.105469 195.382813 C 270.203125 201.511719 269.253906 205.105469 269.253906 206.15625 C 269.253906 209.5625 271.820313 211.265625 276.960938 211.265625 C 283.019531 211.265625 287.519531 208.03125 290.460938 201.558594 C 292.183594 208.617188 295.390625 212.148438 300.085938 212.148438 L 306.320313 212.148438 C 309.054688 212.148438 311.328125 210.878906 313.140625 208.339844 C 315.039063 205.617188 315.988281 202.023438 315.988281 197.566406 C 315.988281 194.65625 315.5 189.957031 314.519531 183.472656 C 313.539063 176.984375 313.050781 172.859375 313.050781 171.09375 C 313.050781 168.429688 314.207031 165.953125 316.523438 163.664063 C 314.117188 160.847656 312.410156 158.277344 311.402344 155.953125 "/>
<path style=" stroke:none;fill-rule:nonzero;fill:rgb(10.998535%,10.998535%,10.598755%);fill-opacity:1;" d="M 330.113281 165.195313 C 328.300781 167.238281 327.15625 168.617188 326.679688 169.328125 C 325.582031 170.972656 325.03125 172.644531 325.03125 174.34375 C 325.03125 175.925781 325.300781 178.292969 325.835938 181.449219 C 326.429688 185.011719 327.039063 188.570313 327.664063 192.132813 C 328.613281 198.167969 329.164063 204.175781 329.3125 210.152344 L 330.957031 210.152344 C 332.414063 206.15625 333.140625 202.472656 333.140625 199.097656 C 333.140625 195.816406 332.710938 190.492188 331.851563 183.121094 C 330.929688 175.257813 330.351563 169.28125 330.113281 165.195313 "/>
<path style=" stroke:none;fill-rule:nonzero;fill:rgb(10.998535%,10.998535%,10.598755%);fill-opacity:1;" d="M 389.011719 227.753906 L 394.757813 232.304688 L 398.144531 226.128906 L 392.574219 221.761719 Z M 389.011719 227.753906 "/>
<path style=" stroke:none;fill-rule:nonzero;fill:rgb(10.998535%,10.998535%,10.598755%);fill-opacity:1;" d="M 460.875 221.203125 L 455.574219 216.792969 L 452.144531 222.875 L 458.066406 227.476563 L 460.609375 222.320313 L 466.089844 226.3125 L 469.652344 220.136719 L 464.171875 215.679688 "/>
<path style=" stroke:none;fill-rule:nonzero;fill:rgb(10.998535%,10.998535%,10.598755%);fill-opacity:1;" d="M 528.503906 182.519531 L 533.984375 186.511719 L 537.550781 180.429688 L 532.070313 175.878906 L 528.773438 181.402344 L 523.472656 176.992188 L 519.90625 183.121094 L 525.742188 187.675781 "/>
<path style=" stroke:none;fill-rule:nonzero;fill:rgb(10.998535%,10.998535%,10.598755%);fill-opacity:1;" d="M 531.222656 171.09375 L 525.652344 166.542969 L 522.089844 172.71875 L 527.835938 177.316406 Z M 531.222656 171.09375 "/>
<path style=" stroke:none;fill-rule:nonzero;fill:rgb(10.998535%,10.998535%,10.598755%);fill-opacity:1;" d="M 538.796875 195.289063 C 538.796875 196.40625 539.257813 197.355469 540.179688 198.144531 C 541.097656 198.9375 541.558594 199.4375 541.558594 199.65625 C 541.558594 200.429688 540.921875 200.816406 539.644531 200.816406 C 537.714844 200.816406 536.148438 200.097656 534.941406 198.65625 C 533.742188 197.21875 533.140625 195.335938 533.140625 193.015625 L 532.246094 192.457031 C 530.792969 195.988281 529.070313 198.480469 527.078125 199.933594 C 525.296875 201.203125 522.996094 201.839844 520.175781 201.839844 C 517.769531 201.839844 516.34375 200.164063 515.898438 196.824219 L 515.539063 196.730469 C 514.261719 198.648438 513 199.980469 511.753906 200.722656 C 510.417969 201.46875 508.636719 201.839844 506.40625 201.839844 L 500.171875 201.839844 C 499.042969 201.839844 497.617188 201.40625 495.894531 200.539063 C 499.367188 198.710938 501.105469 196.234375 501.105469 193.105469 C 501.105469 190.476563 500.089844 188.277344 498.054688 186.511719 C 496.019531 184.746094 493.503906 183.863281 490.503906 183.863281 C 483.820313 183.863281 479.796875 188.0625 478.429688 196.449219 C 481.785156 197.96875 484.132813 199.128906 485.46875 199.933594 C 483.628906 201.203125 481.59375 201.839844 479.363281 201.839844 L 466.621094 201.839844 C 465.078125 201.839844 464.082031 200.164063 463.636719 196.824219 L 463.28125 196.730469 C 462.003906 198.648438 460.742188 199.980469 459.492188 200.722656 C 458.15625 201.46875 456.375 201.839844 454.148438 201.839844 L 421.667969 201.839844 C 418.730469 201.839844 417.257813 200.230469 417.257813 197.007813 L 416.410156 196.730469 C 414.066406 202.304688 404.785156 205.089844 388.566406 205.089844 C 382.238281 205.089844 377.09375 203.921875 373.128906 201.582031 C 369.164063 199.246094 367.179688 196.234375 367.179688 192.550781 C 367.179688 190.878906 367.925781 188.492188 369.410156 185.398438 L 368.296875 184.839844 C 366.335938 188.09375 365.019531 190.660156 364.351563 192.550781 C 363.683594 194.4375 363.351563 196.621094 363.351563 199.097656 C 363.351563 204.332031 365.445313 208.433594 369.632813 211.40625 C 373.820313 214.378906 379.582031 215.863281 386.917969 215.863281 C 398.265625 215.863281 407.828125 213.03125 415.609375 207.363281 C 416.410156 210.554688 418.492188 212.148438 421.847656 212.148438 L 454.148438 212.148438 C 456.433594 212.148438 458.46875 210.273438 460.25 206.527344 C 461.558594 210.273438 463.683594 212.148438 466.621094 212.148438 L 479.363281 212.148438 C 480.878906 212.148438 482.632813 211.203125 484.621094 209.316406 L 490.144531 203.835938 C 491.867188 205.632813 493.605469 207.425781 495.359375 209.222656 C 497.289063 211.171875 498.894531 212.148438 500.171875 212.148438 L 506.40625 212.148438 C 509.347656 212.148438 511.382813 210.242188 512.511719 206.4375 C 513.816406 210.242188 516.371094 212.148438 520.175781 212.148438 C 524.183594 212.148438 527.289063 209.703125 529.484375 204.808594 C 531.117188 208.558594 533.4375 210.429688 536.4375 210.429688 C 538.902344 210.429688 540.9375 209.152344 542.539063 206.597656 C 544.144531 204.042969 544.945313 200.785156 544.945313 196.824219 C 544.945313 191.960938 543.445313 188.03125 540.445313 185.027344 C 539.347656 189.113281 538.796875 192.535156 538.796875 195.289063 "/>
<path style=" stroke:none;fill-rule:nonzero;fill:rgb(10.998535%,10.998535%,10.598755%);fill-opacity:1;" d="M 581.65625 168.539063 L 587.136719 172.441406 L 590.699219 166.265625 L 585.222656 161.851563 L 581.925781 167.285156 L 576.53125 163.011719 L 572.96875 169.097656 L 578.984375 173.601563 "/>
<path style=" stroke:none;fill-rule:nonzero;fill:rgb(10.998535%,10.998535%,10.598755%);fill-opacity:1;" d="M 680.230469 198.585938 C 679.265625 198.308594 678.359375 197.992188 677.511719 197.636719 C 676.664063 197.28125 675.945313 196.910156 675.351563 196.519531 C 674.757813 196.132813 674.460938 195.816406 674.460938 195.570313 C 674.460938 195.351563 674.550781 195.082031 674.726563 194.757813 C 674.90625 194.429688 675.144531 194.113281 675.441406 193.804688 C 675.738281 193.492188 676.0625 193.238281 676.421875 193.035156 C 676.777344 192.835938 677.132813 192.734375 677.488281 192.734375 C 678.171875 192.734375 678.816406 192.914063 679.429688 193.269531 C 680.035156 193.625 680.578125 194.089844 681.054688 194.664063 C 681.527344 195.238281 681.921875 195.902344 682.234375 196.660156 C 682.546875 197.417969 682.746094 198.214844 682.835938 199.050781 C 682.0625 199.019531 681.195313 198.867188 680.230469 198.585938 M 583.527344 197.9375 C 579.28125 197.9375 577.15625 197.335938 577.15625 196.125 C 577.15625 194.824219 579.460938 192.828125 584.0625 190.136719 C 584.746094 192.890625 585.085938 195.027344 585.085938 196.542969 C 585.085938 197.472656 584.566406 197.9375 583.527344 197.9375 M 679.851563 184.238281 C 677.296875 184.238281 675.292969 186.140625 673.835938 189.949219 L 671.429688 196.125 C 669.945313 199.933594 668.015625 201.839844 665.640625 201.839844 L 639.886719 201.839844 C 638.757813 201.839844 637.335938 201.40625 635.609375 200.539063 C 639.085938 198.710938 640.824219 196.234375 640.824219 193.105469 C 640.824219 190.476563 639.804688 188.277344 637.773438 186.511719 C 635.738281 184.746094 633.21875 183.867188 630.21875 183.867188 C 623.535156 183.867188 619.511719 188.0625 618.144531 196.449219 C 621.503906 197.96875 623.847656 199.128906 625.1875 199.933594 C 623.34375 201.203125 621.308594 201.839844 619.082031 201.839844 L 593.328125 201.839844 C 591.816406 201.839844 590.804688 200.539063 590.300781 197.9375 C 590.0625 196.792969 589.585938 193.386719 588.875 187.722656 C 588.160156 182.054688 587.535156 177.84375 587.003906 175.089844 C 584.09375 178.183594 582.636719 180.289063 582.636719 181.40625 C 582.636719 181.867188 582.769531 182.765625 583.039063 184.097656 C 583.304688 185.429688 583.4375 186.234375 583.4375 186.511719 C 579.667969 188.679688 577.277344 190.199219 576.265625 191.0625 C 575.105469 192.054688 574.15625 193.464844 573.414063 195.289063 C 571.871094 199.035156 571.097656 201.636719 571.097656 203.09375 C 571.097656 204.390625 571.839844 205.507813 573.324219 206.4375 C 574.660156 207.273438 576.058594 207.691406 577.511719 207.691406 C 579.769531 207.691406 582.503906 205.273438 585.710938 200.445313 C 586.1875 204.71875 586.988281 207.738281 588.117188 209.5 C 589.246094 211.265625 590.984375 212.148438 593.328125 212.148438 L 619.082031 212.148438 C 620.597656 212.148438 622.347656 211.203125 624.339844 209.316406 L 629.863281 203.835938 C 631.585938 205.632813 633.324219 207.429688 635.074219 209.222656 C 637.007813 211.171875 638.609375 212.148438 639.886719 212.148438 L 665.640625 212.148438 C 668.074219 212.148438 670.09375 209.425781 671.699219 203.976563 C 676.539063 206.574219 679.984375 207.875 682.035156 207.875 C 683.667969 207.875 685.050781 207.039063 686.175781 205.367188 C 687.304688 203.664063 687.871094 201.574219 687.871094 199.097656 C 687.871094 195.226563 686.875 191.511719 684.886719 187.953125 C 683.488281 185.476563 681.8125 184.238281 679.851563 184.238281 "/>
<path style=" stroke:none;fill-rule:nonzero;fill:rgb(10.998535%,10.998535%,10.598755%);fill-opacity:1;" d="M 752.785156 217.675781 L 758.53125 222.320313 L 761.917969 216.140625 L 756.347656 211.589844 Z M 752.785156 217.675781 "/>
<path style=" stroke:none;fill-rule:nonzero;fill:rgb(10.998535%,10.998535%,10.598755%);fill-opacity:1;" d="M 770.425781 189.113281 C 765.851563 189.113281 760.640625 187.9375 754.789063 185.585938 C 751.164063 184.128906 748.402344 183.402344 746.503906 183.402344 C 743.886719 183.402344 741.859375 184.277344 740.421875 186.023438 C 738.980469 187.773438 737.738281 190.894531 736.699219 195.382813 C 739.671875 194.238281 742.226563 193.664063 744.363281 193.664063 C 747.273438 193.664063 750.480469 194.625 753.988281 196.542969 C 747.363281 200.074219 741.914063 201.839844 737.636719 201.839844 L 705.382813 201.839844 C 703.0625 201.839844 701.785156 199.6875 701.550781 195.382813 C 701.402344 192.597656 700.96875 187.566406 700.257813 180.289063 C 699.515625 172.703125 698.9375 167.671875 698.519531 165.195313 C 696.648438 167.363281 695.488281 168.804688 695.046875 169.515625 C 694.242188 170.785156 693.84375 172.101563 693.84375 173.460938 C 693.84375 174.296875 694.152344 176.28125 694.777344 179.40625 C 695.550781 183.402344 696.21875 189.019531 696.78125 196.265625 C 697.226563 201.960938 698 205.941406 699.097656 208.199219 C 700.375 210.832031 702.46875 212.148438 705.382813 212.148438 L 737.636719 212.148438 C 739.269531 212.148438 741.050781 211.527344 742.984375 210.289063 C 743.488281 209.949219 745.015625 208.757813 747.570313 206.714844 C 751.789063 203.339844 754.835938 201.15625 756.703125 200.164063 C 759.171875 198.835938 762.273438 197.90625 766.015625 197.378906 C 768.570313 197.195313 770.398438 197.101563 771.496094 197.101563 C 772.773438 196.976563 773.695313 196.886719 774.257813 196.824219 L 775.328125 188.835938 C 772.804688 189.019531 771.171875 189.113281 770.425781 189.113281 "/>
<path style=" stroke:none;fill-rule:nonzero;fill:rgb(10.998535%,10.998535%,10.598755%);fill-opacity:1;" d="M 63.820313 401.15625 L 83.402344 401.15625 L 83.402344 402.191406 L 82.421875 402.191406 C 80.949219 402.191406 79.9375 402.34375 79.386719 402.652344 C 78.835938 402.960938 78.445313 403.382813 78.210938 403.925781 C 77.980469 404.464844 77.863281 405.816406 77.863281 407.980469 L 77.863281 426.554688 C 77.863281 429.949219 78.117188 432.195313 78.632813 433.296875 C 79.144531 434.394531 79.988281 435.308594 81.164063 436.035156 C 82.339844 436.765625 83.820313 437.128906 85.609375 437.128906 C 87.660156 437.128906 89.410156 436.664063 90.855469 435.742188 C 92.300781 434.820313 93.382813 433.546875 94.101563 431.925781 C 94.816406 430.300781 95.175781 427.476563 95.175781 423.449219 L 95.175781 407.980469 C 95.175781 406.285156 95 405.070313 94.644531 404.34375 C 94.289063 403.617188 93.84375 403.113281 93.304688 402.835938 C 92.464844 402.40625 91.277344 402.191406 89.75 402.191406 L 89.75 401.15625 L 102.867188 401.15625 L 102.867188 402.191406 L 102.085938 402.191406 C 101.023438 402.191406 100.136719 402.40625 99.429688 402.835938 C 98.71875 403.261719 98.207031 403.90625 97.890625 404.765625 C 97.648438 405.359375 97.527344 406.433594 97.527344 407.980469 L 97.527344 422.386719 C 97.527344 426.84375 97.234375 430.058594 96.644531 432.035156 C 96.058594 434.011719 94.628906 435.832031 92.351563 437.492188 C 90.078125 439.148438 86.972656 439.980469 83.035156 439.980469 C 79.753906 439.980469 77.21875 439.542969 75.429688 438.664063 C 72.984375 437.472656 71.261719 435.941406 70.253906 434.078125 C 69.246094 432.214844 68.742188 429.703125 68.742188 426.554688 L 68.742188 407.980469 C 68.742188 405.800781 68.621094 404.441406 68.378906 403.910156 C 68.136719 403.378906 67.71875 402.953125 67.121094 402.636719 C 66.523438 402.320313 65.425781 402.171875 63.820313 402.191406 "/>
<path style=" stroke:none;fill-rule:nonzero;fill:rgb(10.998535%,10.998535%,10.598755%);fill-opacity:1;" d="M 116.464844 412.933594 L 116.464844 416.316406 C 117.804688 414.863281 119.09375 413.804688 120.324219 413.140625 C 121.554688 412.480469 122.878906 412.148438 124.296875 412.148438 C 125.992188 412.148438 127.398438 412.621094 128.519531 413.5625 C 129.636719 414.503906 130.382813 415.671875 130.757813 417.070313 C 131.054688 418.136719 131.203125 420.175781 131.203125 423.195313 L 131.203125 433.378906 C 131.203125 435.394531 131.386719 436.648438 131.75 437.140625 C 132.113281 437.636719 132.871094 437.949219 134.027344 438.078125 L 134.027344 439.085938 L 120.800781 439.085938 L 120.800781 438.078125 C 121.785156 437.949219 122.496094 437.535156 122.925781 436.847656 C 123.222656 436.382813 123.371094 435.226563 123.371094 433.378906 L 123.371094 421.742188 C 123.371094 419.597656 123.289063 418.246094 123.121094 417.6875 C 122.953125 417.128906 122.667969 416.695313 122.265625 416.386719 C 121.867188 416.078125 121.421875 415.925781 120.9375 415.925781 C 119.335938 415.925781 117.84375 417.070313 116.464844 419.363281 L 116.464844 433.378906 C 116.464844 435.335938 116.644531 436.578125 117.007813 437.097656 C 117.371094 437.621094 118.046875 437.949219 119.035156 438.078125 L 119.035156 439.085938 L 105.804688 439.085938 L 105.804688 438.078125 C 106.90625 437.964844 107.6875 437.613281 108.15625 437.015625 C 108.472656 436.605469 108.632813 435.394531 108.632813 433.378906 L 108.632813 418.609375 C 108.632813 416.632813 108.449219 415.402344 108.085938 414.917969 C 107.722656 414.433594 106.960938 414.117188 105.804688 413.96875 L 105.804688 412.933594 "/>
<path style=" stroke:none;fill-rule:nonzero;fill:rgb(10.998535%,10.998535%,10.598755%);fill-opacity:1;" d="M 143.929688 400.261719 C 145.144531 400.261719 146.167969 400.683594 147.007813 401.53125 C 147.847656 402.382813 148.265625 403.402344 148.265625 404.597656 C 148.265625 405.789063 147.84375 406.804688 146.992188 407.644531 C 146.144531 408.484375 145.125 408.902344 143.929688 408.902344 C 142.738281 408.902344 141.722656 408.484375 140.882813 407.644531 C 140.042969 406.804688 139.621094 405.789063 139.621094 404.597656 C 139.621094 403.402344 140.042969 402.382813 140.882813 401.53125 C 141.722656 400.683594 142.738281 400.261719 143.929688 400.261719 M 147.847656 412.933594 L 147.847656 433.660156 C 147.847656 435.503906 148.0625 436.683594 148.488281 437.195313 C 148.917969 437.710938 149.757813 438.003906 151.007813 438.078125 L 151.007813 439.085938 L 136.882813 439.085938 L 136.882813 438.078125 C 138.039063 438.039063 138.894531 437.703125 139.457031 437.070313 C 139.828125 436.640625 140.015625 435.503906 140.015625 433.660156 L 140.015625 418.386719 C 140.015625 416.539063 139.800781 415.359375 139.371094 414.847656 C 138.941406 414.335938 138.113281 414.042969 136.882813 413.96875 L 136.882813 412.933594 "/>
<path style=" stroke:none;fill-rule:nonzero;fill:rgb(10.998535%,10.998535%,10.598755%);fill-opacity:1;" d="M 165.355469 439.867188 L 156.546875 419.589844 C 155.484375 417.144531 154.652344 415.597656 154.058594 414.945313 C 153.628906 414.460938 152.992188 414.136719 152.15625 413.96875 L 152.15625 412.933594 L 166.054688 412.933594 L 166.054688 413.96875 C 165.179688 413.96875 164.582031 414.125 164.265625 414.441406 C 163.820313 414.851563 163.59375 415.335938 163.59375 415.898438 C 163.59375 416.585938 164.003906 417.882813 164.824219 419.785156 L 169.132813 429.601563 L 172.574219 421.128906 C 173.5625 418.703125 174.054688 416.988281 174.054688 415.980469 C 174.054688 415.402344 173.847656 414.933594 173.425781 414.566406 C 173.007813 414.203125 172.265625 414.003906 171.203125 413.96875 L 171.203125 412.933594 L 179.761719 412.933594 L 179.761719 413.96875 C 178.941406 414.078125 178.269531 414.386719 177.746094 414.890625 C 177.226563 415.394531 176.441406 416.875 175.398438 419.335938 L 166.671875 439.867188 "/>
<path style=" stroke:none;fill-rule:nonzero;fill:rgb(10.998535%,10.998535%,10.598755%);fill-opacity:1;" d="M 197.46875 423.199219 C 197.46875 420.195313 197.304688 418.136719 196.976563 417.015625 C 196.652344 415.898438 196.144531 415.050781 195.453125 414.472656 C 195.0625 414.136719 194.539063 413.96875 193.886719 413.96875 C 192.917969 413.96875 192.125 414.441406 191.511719 415.394531 C 190.410156 417.054688 189.859375 419.328125 189.859375 422.21875 L 189.859375 423.199219 Z M 204.347656 425.070313 L 190 425.070313 C 190.167969 428.539063 191.089844 431.28125 192.769531 433.296875 C 194.054688 434.84375 195.601563 435.617188 197.410156 435.617188 C 198.53125 435.617188 199.546875 435.304688 200.460938 434.679688 C 201.375 434.054688 202.351563 432.933594 203.398438 431.308594 L 204.347656 431.925781 C 202.933594 434.816406 201.363281 436.859375 199.648438 438.0625 C 197.933594 439.265625 195.949219 439.867188 193.691406 439.867188 C 189.8125 439.867188 186.875 438.375 184.882813 435.394531 C 183.277344 432.988281 182.476563 430.003906 182.476563 426.441406 C 182.476563 422.078125 183.652344 418.605469 186.015625 416.023438 C 188.371094 413.441406 191.136719 412.148438 194.308594 412.148438 C 196.953125 412.148438 199.253906 413.234375 201.203125 415.40625 C 203.148438 417.578125 204.199219 420.800781 204.347656 425.070313 "/>
<path style=" stroke:none;fill-rule:nonzero;fill:rgb(10.998535%,10.998535%,10.598755%);fill-opacity:1;" d="M 218.476563 412.933594 L 218.476563 418.863281 C 220.210938 416.15625 221.730469 414.363281 223.035156 413.476563 C 224.339844 412.59375 225.597656 412.148438 226.808594 412.148438 C 227.855469 412.148438 228.6875 412.46875 229.3125 413.113281 C 229.9375 413.757813 230.25 414.664063 230.25 415.839844 C 230.25 417.089844 229.945313 418.058594 229.34375 418.75 C 228.734375 419.441406 228.003906 419.785156 227.144531 419.785156 C 226.15625 419.785156 225.300781 419.46875 224.574219 418.835938 C 223.84375 418.199219 223.414063 417.847656 223.285156 417.769531 C 223.101563 417.660156 222.886719 417.601563 222.644531 417.601563 C 222.101563 417.601563 221.589844 417.808594 221.105469 418.21875 C 220.339844 418.851563 219.761719 419.757813 219.371094 420.933594 C 218.773438 422.742188 218.476563 424.734375 218.476563 426.917969 L 218.476563 432.933594 L 218.503906 434.496094 C 218.503906 435.5625 218.566406 436.242188 218.699219 436.539063 C 218.921875 437.042969 219.253906 437.410156 219.691406 437.644531 C 220.128906 437.878906 220.871094 438.023438 221.914063 438.078125 L 221.914063 439.085938 L 207.789063 439.085938 L 207.789063 438.078125 C 208.925781 437.984375 209.695313 437.671875 210.097656 437.140625 C 210.496094 436.609375 210.699219 435.207031 210.699219 432.933594 L 210.699219 418.46875 C 210.699219 416.980469 210.625 416.027344 210.476563 415.617188 C 210.289063 415.09375 210.019531 414.714844 209.664063 414.46875 C 209.308594 414.226563 208.683594 414.058594 207.789063 413.96875 L 207.789063 412.933594 "/>
<path style=" stroke:none;fill-rule:nonzero;fill:rgb(10.998535%,10.998535%,10.598755%);fill-opacity:1;" d="M 249.578125 412.203125 L 250 421.128906 L 249.046875 421.128906 C 247.910156 418.480469 246.730469 416.671875 245.507813 415.699219 C 244.289063 414.730469 243.070313 414.246094 241.859375 414.246094 C 241.09375 414.246094 240.441406 414.503906 239.902344 415.015625 C 239.359375 415.527344 239.089844 416.121094 239.089844 416.792969 C 239.089844 417.296875 239.277344 417.78125 239.648438 418.246094 C 240.246094 419.011719 241.914063 420.320313 244.65625 422.175781 C 247.398438 424.03125 249.199219 425.605469 250.070313 426.902344 C 250.9375 428.199219 251.367188 429.648438 251.367188 431.253906 C 251.367188 432.707031 251.007813 434.136719 250.277344 435.53125 C 249.550781 436.933594 248.523438 438.003906 247.199219 438.75 C 245.878906 439.496094 244.414063 439.867188 242.808594 439.867188 C 241.5625 439.867188 239.890625 439.476563 237.804688 438.695313 C 237.242188 438.488281 236.859375 438.386719 236.65625 438.386719 C 236.039063 438.386719 235.527344 438.851563 235.117188 439.785156 L 234.195313 439.785156 L 233.746094 430.386719 L 234.699219 430.386719 C 235.535156 432.847656 236.6875 434.695313 238.152344 435.925781 C 239.617188 437.15625 241 437.769531 242.304688 437.769531 C 243.203125 437.769531 243.933594 437.496094 244.503906 436.945313 C 245.070313 436.394531 245.355469 435.730469 245.355469 434.945313 C 245.355469 434.050781 245.074219 433.277344 244.515625 432.625 C 243.957031 431.972656 242.707031 430.984375 240.769531 429.660156 C 237.914063 427.683594 236.070313 426.171875 235.230469 425.128906 C 234 423.597656 233.382813 421.910156 233.382813 420.066406 C 233.382813 418.050781 234.078125 416.230469 235.46875 414.597656 C 236.855469 412.964844 238.867188 412.148438 241.496094 412.148438 C 242.910156 412.148438 244.28125 412.492188 245.605469 413.183594 C 246.109375 413.464844 246.519531 413.605469 246.839844 413.605469 C 247.171875 413.605469 247.441406 413.53125 247.648438 413.394531 C 247.855469 413.253906 248.179688 412.859375 248.628906 412.203125 "/>
<path style=" stroke:none;fill-rule:nonzero;fill:rgb(10.998535%,10.998535%,10.598755%);fill-opacity:1;" d="M 261.632813 400.261719 C 262.847656 400.261719 263.871094 400.683594 264.710938 401.53125 C 265.550781 402.382813 265.96875 403.402344 265.96875 404.597656 C 265.96875 405.789063 265.546875 406.804688 264.699219 407.644531 C 263.847656 408.484375 262.828125 408.902344 261.632813 408.902344 C 260.441406 408.902344 259.425781 408.484375 258.585938 407.644531 C 257.746094 406.804688 257.328125 405.789063 257.328125 404.597656 C 257.328125 403.402344 257.746094 402.382813 258.585938 401.53125 C 259.425781 400.683594 260.441406 400.261719 261.632813 400.261719 M 265.550781 412.933594 L 265.550781 433.660156 C 265.550781 435.503906 265.765625 436.683594 266.191406 437.195313 C 266.621094 437.710938 267.460938 438.003906 268.710938 438.078125 L 268.710938 439.085938 L 254.585938 439.085938 L 254.585938 438.078125 C 255.742188 438.039063 256.601563 437.703125 257.160156 437.070313 C 257.53125 436.640625 257.71875 435.503906 257.71875 433.660156 L 257.71875 418.386719 C 257.71875 416.539063 257.503906 415.359375 257.074219 414.847656 C 256.644531 414.335938 255.816406 414.042969 254.585938 413.96875 L 254.585938 412.933594 "/>
<path style=" stroke:none;fill-rule:nonzero;fill:rgb(10.998535%,10.998535%,10.598755%);fill-opacity:1;" d="M 281.632813 403.367188 L 281.632813 412.933594 L 287.84375 412.933594 L 287.84375 415.699219 L 281.632813 415.699219 L 281.632813 431.839844 C 281.632813 433.351563 281.703125 434.324219 281.84375 434.761719 C 281.984375 435.203125 282.230469 435.558594 282.585938 435.824219 C 282.9375 436.097656 283.265625 436.230469 283.5625 436.230469 C 284.777344 436.230469 285.921875 435.308594 287.003906 433.464844 L 287.84375 434.078125 C 286.332031 437.660156 283.882813 439.449219 280.488281 439.449219 C 278.828125 439.449219 277.425781 438.988281 276.277344 438.0625 C 275.132813 437.140625 274.398438 436.109375 274.082031 434.972656 C 273.894531 434.339844 273.800781 432.625 273.800781 429.828125 L 273.800781 415.699219 L 270.390625 415.699219 L 270.390625 414.722656 C 272.738281 413.0625 274.738281 411.320313 276.390625 409.492188 C 278.039063 407.664063 279.480469 405.621094 280.710938 403.367188 "/>
<path style=" stroke:none;fill-rule:nonzero;fill:rgb(10.998535%,10.998535%,10.598755%);fill-opacity:1;" d="M 309.71875 399.867188 L 300.457031 409.574219 L 298.054688 409.574219 L 301.296875 399.867188 Z M 305.605469 423.199219 C 305.605469 420.195313 305.441406 418.132813 305.117188 417.015625 C 304.789063 415.898438 304.28125 415.046875 303.589844 414.46875 C 303.199219 414.132813 302.679688 413.96875 302.023438 413.96875 C 301.054688 413.96875 300.265625 414.441406 299.648438 415.394531 C 298.546875 417.054688 297.996094 419.328125 297.996094 422.21875 L 297.996094 423.199219 Z M 312.484375 425.070313 L 298.136719 425.070313 C 298.304688 428.539063 299.226563 431.28125 300.90625 433.296875 C 302.191406 434.84375 303.738281 435.617188 305.550781 435.617188 C 306.667969 435.617188 307.683594 435.304688 308.597656 434.679688 C 309.511719 434.054688 310.492188 432.933594 311.535156 431.308594 L 312.484375 431.925781 C 311.070313 434.816406 309.503906 436.859375 307.785156 438.0625 C 306.070313 439.265625 304.085938 439.867188 301.828125 439.867188 C 297.949219 439.867188 295.011719 438.375 293.019531 435.394531 C 291.414063 432.988281 290.613281 430.003906 290.613281 426.441406 C 290.613281 422.078125 291.792969 418.605469 294.152344 416.023438 C 296.507813 413.4375 299.273438 412.148438 302.445313 412.148438 C 305.09375 412.148438 307.390625 413.234375 309.339844 415.40625 C 311.289063 417.578125 312.335938 420.800781 312.484375 425.070313 "/>
<path style=" stroke:none;fill-rule:nonzero;fill:rgb(10.998535%,10.998535%,10.598755%);fill-opacity:1;" d="M 366.386719 400.289063 L 366.386719 413.4375 L 365.296875 413.4375 C 364.476563 410.003906 362.945313 407.375 360.710938 405.546875 C 358.472656 403.71875 355.933594 402.804688 353.101563 402.804688 C 350.730469 402.804688 348.558594 403.488281 346.582031 404.847656 C 344.605469 406.210938 343.160156 407.988281 342.246094 410.191406 C 341.074219 413.007813 340.484375 416.140625 340.484375 419.589844 C 340.484375 422.984375 340.914063 426.074219 341.773438 428.859375 C 342.628906 431.648438 343.972656 433.757813 345.800781 435.183594 C 347.628906 436.609375 349.996094 437.324219 352.90625 437.324219 C 355.292969 437.324219 357.480469 436.800781 359.464844 435.757813 C 361.449219 434.710938 363.542969 432.914063 365.742188 430.359375 L 365.742188 433.632813 C 363.617188 435.851563 361.402344 437.460938 359.101563 438.453125 C 356.796875 439.453125 354.109375 439.953125 351.03125 439.953125 C 346.984375 439.953125 343.390625 439.140625 340.246094 437.519531 C 337.105469 435.898438 334.679688 433.566406 332.976563 430.527344 C 331.269531 427.484375 330.414063 424.25 330.414063 420.820313 C 330.414063 417.203125 331.363281 413.769531 333.253906 410.527344 C 335.148438 407.28125 337.703125 404.765625 340.921875 402.972656 C 344.136719 401.183594 347.554688 400.289063 351.171875 400.289063 C 353.835938 400.289063 356.652344 400.867188 359.617188 402.023438 C 361.335938 402.695313 362.425781 403.03125 362.890625 403.03125 C 363.488281 403.03125 364.003906 402.8125 364.441406 402.371094 C 364.882813 401.933594 365.164063 401.238281 365.296875 400.289063 "/>
<path style=" stroke:none;fill-rule:nonzero;fill:rgb(10.998535%,10.998535%,10.598755%);fill-opacity:1;" d="M 382.136719 401.15625 L 382.136719 416.289063 C 383.570313 414.777344 384.886719 413.710938 386.078125 413.085938 C 387.273438 412.460938 388.511719 412.148438 389.800781 412.148438 C 391.441406 412.148438 392.84375 412.613281 394.007813 413.546875 C 395.175781 414.480469 395.949219 415.574219 396.332031 416.832031 C 396.714844 418.09375 396.90625 420.214844 396.90625 423.195313 L 396.90625 433.40625 C 396.90625 435.402344 397.089844 436.648438 397.464844 437.140625 C 397.835938 437.636719 398.59375 437.949219 399.730469 438.078125 L 399.730469 439.085938 L 386.472656 439.085938 L 386.472656 438.078125 C 387.402344 437.949219 388.101563 437.574219 388.570313 436.960938 C 388.90625 436.476563 389.074219 435.289063 389.074219 433.40625 L 389.074219 421.742188 C 389.074219 419.578125 388.988281 418.222656 388.820313 417.671875 C 388.652344 417.121094 388.367188 416.695313 387.96875 416.386719 C 387.566406 416.078125 387.113281 415.925781 386.609375 415.925781 C 385.867188 415.925781 385.136719 416.179688 384.429688 416.695313 C 383.722656 417.207031 382.957031 418.105469 382.136719 419.394531 L 382.136719 433.40625 C 382.136719 435.273438 382.277344 436.4375 382.554688 436.902344 C 382.910156 437.535156 383.636719 437.929688 384.738281 438.078125 L 384.738281 439.085938 L 371.480469 439.085938 L 371.480469 438.078125 C 372.578125 437.964844 373.363281 437.613281 373.828125 437.015625 C 374.144531 436.605469 374.304688 435.402344 374.304688 433.40625 L 374.304688 406.835938 C 374.304688 404.859375 374.121094 403.628906 373.757813 403.140625 C 373.394531 402.65625 372.636719 402.339844 371.480469 402.191406 L 371.480469 401.15625 "/>
<path style=" stroke:none;fill-rule:nonzero;fill:rgb(10.998535%,10.998535%,10.598755%);fill-opacity:1;" d="M 415.757813 414.136719 C 414.804688 414.136719 413.988281 414.492188 413.308594 415.210938 C 412.628906 415.929688 412.179688 417.347656 411.964844 419.464844 C 411.75 421.578125 411.644531 424.523438 411.644531 428.289063 C 411.644531 430.285156 411.773438 432.148438 412.035156 433.882813 C 412.242188 435.207031 412.679688 436.214844 413.351563 436.902344 C 414.023438 437.59375 414.785156 437.9375 415.644531 437.9375 C 416.484375 437.9375 417.183594 437.707031 417.742188 437.238281 C 418.46875 436.605469 418.953125 435.71875 419.195313 434.582031 C 419.570313 432.8125 419.757813 429.230469 419.757813 423.839844 C 419.757813 420.671875 419.578125 418.492188 419.222656 417.308594 C 418.871094 416.125 418.347656 415.261719 417.65625 414.722656 C 417.171875 414.332031 416.539063 414.136719 415.757813 414.136719 M 415.644531 412.148438 C 417.917969 412.148438 420.035156 412.734375 421.992188 413.910156 C 423.949219 415.085938 425.4375 416.753906 426.453125 418.917969 C 427.46875 421.082031 427.980469 423.449219 427.980469 426.023438 C 427.980469 429.734375 427.035156 432.839844 425.152344 435.335938 C 422.878906 438.359375 419.738281 439.867188 415.726563 439.867188 C 411.792969 439.867188 408.761719 438.488281 406.636719 435.730469 C 404.511719 432.96875 403.449219 429.769531 403.449219 426.136719 C 403.449219 422.386719 404.535156 419.117188 406.707031 416.328125 C 408.878906 413.542969 411.859375 412.148438 415.644531 412.148438 "/>
<path style=" stroke:none;fill-rule:nonzero;fill:rgb(10.998535%,10.998535%,10.598755%);fill-opacity:1;" d="M 457.210938 412.933594 L 457.210938 433.40625 C 457.210938 435.402344 457.394531 436.648438 457.769531 437.140625 C 458.140625 437.636719 458.898438 437.949219 460.035156 438.078125 L 460.035156 439.085938 L 449.378906 439.085938 L 449.378906 435.589844 C 448.128906 437.082031 446.878906 438.164063 445.628906 438.847656 C 444.378906 439.527344 442.980469 439.867188 441.433594 439.867188 C 439.960938 439.867188 438.652344 439.414063 437.503906 438.511719 C 436.355469 437.605469 435.589844 436.550781 435.195313 435.335938 C 434.804688 434.125 434.609375 432.007813 434.609375 428.988281 L 434.609375 418.609375 C 434.609375 416.632813 434.425781 415.402344 434.0625 414.917969 C 433.699219 414.433594 432.9375 414.117188 431.78125 413.96875 L 431.78125 412.933594 L 442.441406 412.933594 L 442.441406 430.804688 C 442.441406 432.671875 442.527344 433.871094 442.703125 434.414063 C 442.882813 434.953125 443.164063 435.363281 443.542969 435.644531 C 443.925781 435.925781 444.371094 436.0625 444.875 436.0625 C 445.546875 436.0625 446.152344 435.886719 446.691406 435.53125 C 447.4375 435.046875 448.332031 434.070313 449.378906 432.597656 L 449.378906 418.609375 C 449.378906 416.632813 449.195313 415.402344 448.832031 414.917969 C 448.46875 414.433594 447.707031 414.117188 446.550781 413.96875 L 446.550781 412.933594 "/>
<path style=" stroke:none;fill-rule:nonzero;fill:rgb(10.998535%,10.998535%,10.598755%);fill-opacity:1;" d="M 478.246094 433.183594 L 478.246094 424.429688 C 475.988281 425.753906 474.308594 427.167969 473.210938 428.679688 C 472.484375 429.6875 472.117188 430.703125 472.117188 431.726563 C 472.117188 432.585938 472.425781 433.34375 473.042969 433.992188 C 473.507813 434.496094 474.160156 434.75 475 434.75 C 475.933594 434.75 477.015625 434.226563 478.246094 433.183594 M 478.246094 435.226563 C 475.054688 438.039063 472.195313 439.449219 469.65625 439.449219 C 468.164063 439.449219 466.925781 438.960938 465.9375 437.980469 C 464.949219 437 464.453125 435.773438 464.453125 434.300781 C 464.453125 432.308594 465.3125 430.511719 467.027344 428.917969 C 468.742188 427.320313 472.484375 425.203125 478.246094 422.554688 L 478.246094 419.925781 C 478.246094 417.949219 478.136719 416.703125 477.921875 416.191406 C 477.707031 415.675781 477.304688 415.230469 476.707031 414.847656 C 476.109375 414.464844 475.4375 414.273438 474.691406 414.273438 C 473.480469 414.273438 472.484375 414.546875 471.699219 415.085938 C 471.214844 415.421875 470.972656 415.8125 470.972656 416.261719 C 470.972656 416.652344 471.234375 417.136719 471.757813 417.714844 C 472.464844 418.515625 472.820313 419.289063 472.820313 420.035156 C 472.820313 420.949219 472.476563 421.726563 471.796875 422.371094 C 471.117188 423.015625 470.226563 423.335938 469.125 423.335938 C 467.953125 423.335938 466.96875 422.984375 466.175781 422.273438 C 465.382813 421.566406 464.988281 420.734375 464.988281 419.785156 C 464.988281 418.441406 465.519531 417.160156 466.582031 415.9375 C 467.644531 414.71875 469.125 413.78125 471.027344 413.128906 C 472.929688 412.476563 474.90625 412.148438 476.957031 412.148438 C 479.4375 412.148438 481.402344 412.675781 482.847656 413.726563 C 484.289063 414.78125 485.230469 415.925781 485.65625 417.15625 C 485.917969 417.9375 486.050781 419.738281 486.050781 422.554688 L 486.050781 432.707031 C 486.050781 433.902344 486.097656 434.652344 486.1875 434.960938 C 486.28125 435.265625 486.421875 435.496094 486.609375 435.644531 C 486.796875 435.792969 487.007813 435.867188 487.253906 435.867188 C 487.738281 435.867188 488.230469 435.523438 488.734375 434.832031 L 489.574219 435.503906 C 488.640625 436.886719 487.675781 437.886719 486.679688 438.511719 C 485.679688 439.136719 484.546875 439.449219 483.28125 439.449219 C 481.789063 439.449219 480.621094 439.097656 479.78125 438.398438 C 478.945313 437.699219 478.429688 436.640625 478.246094 435.226563 "/>
<path style=" stroke:none;fill-rule:nonzero;fill:rgb(10.998535%,10.998535%,10.598755%);fill-opacity:1;" d="M 498.746094 400.261719 C 499.960938 400.261719 500.984375 400.683594 501.824219 401.53125 C 502.664063 402.382813 503.085938 403.402344 503.085938 404.597656 C 503.085938 405.789063 502.660156 406.804688 501.808594 407.644531 C 500.960938 408.484375 499.941406 408.902344 498.746094 408.902344 C 497.554688 408.902344 496.539063 408.484375 495.699219 407.644531 C 494.859375 406.804688 494.441406 405.789063 494.441406 404.597656 C 494.441406 403.402344 494.859375 402.382813 495.699219 401.53125 C 496.539063 400.683594 497.554688 400.261719 498.746094 400.261719 M 502.664063 412.933594 L 502.664063 433.660156 C 502.664063 435.503906 502.878906 436.683594 503.308594 437.195313 C 503.734375 437.710938 504.574219 438.003906 505.824219 438.078125 L 505.824219 439.085938 L 491.699219 439.085938 L 491.699219 438.078125 C 492.855469 438.039063 493.714844 437.703125 494.273438 437.070313 C 494.644531 436.640625 494.832031 435.503906 494.832031 433.660156 L 494.832031 418.386719 C 494.832031 416.539063 494.617188 415.359375 494.1875 414.847656 C 493.761719 414.335938 492.929688 414.042969 491.699219 413.96875 L 491.699219 412.933594 "/>
<path style=" stroke:none;fill-rule:nonzero;fill:rgb(10.998535%,10.998535%,10.598755%);fill-opacity:1;" d="M 518.496094 418.050781 L 518.496094 429.6875 C 518.496094 432.054688 518.550781 433.566406 518.664063 434.21875 C 518.847656 435.320313 519.296875 436.210938 520.003906 436.890625 C 520.714844 437.570313 521.617188 437.910156 522.71875 437.910156 C 523.671875 437.910156 524.484375 437.640625 525.164063 437.097656 C 525.847656 436.558594 526.414063 435.484375 526.871094 433.882813 C 527.328125 432.277344 527.558594 429.390625 527.558594 425.210938 C 527.558594 421.203125 527.054688 418.453125 526.046875 416.960938 C 525.320313 415.878906 524.339844 415.339844 523.109375 415.339844 C 521.507813 415.339844 519.96875 416.242188 518.496094 418.050781 M 518.496094 401.15625 L 518.496094 415.5625 C 520.695313 413.285156 523.101563 412.148438 525.710938 412.148438 C 527.503906 412.148438 529.1875 412.675781 530.773438 413.730469 C 532.359375 414.78125 533.597656 416.277344 534.496094 418.21875 C 535.390625 420.15625 535.835938 422.394531 535.835938 424.933594 C 535.835938 427.785156 535.269531 430.378906 534.128906 432.707031 C 532.992188 435.039063 531.472656 436.816406 529.570313 438.035156 C 527.671875 439.257813 525.496094 439.867188 523.054688 439.867188 C 521.636719 439.867188 520.378906 439.644531 519.277344 439.195313 C 518.175781 438.75 517.097656 438.023438 516.035156 437.015625 L 511.699219 439.839844 L 510.746094 439.839844 L 510.746094 406.582031 C 510.746094 405.070313 510.683594 404.140625 510.550781 403.785156 C 510.363281 403.261719 510.070313 402.875 509.667969 402.625 C 509.269531 402.371094 508.59375 402.230469 507.640625 402.191406 L 507.640625 401.15625 "/>
<path style=" stroke:none;fill-rule:nonzero;fill:rgb(10.998535%,10.998535%,10.598755%);fill-opacity:1;" d="M 567.835938 403.308594 L 567.835938 432.902344 C 567.835938 434.46875 567.910156 435.429688 568.0625 435.785156 C 568.210938 436.140625 568.460938 436.410156 568.816406 436.597656 C 569.320313 436.875 570.046875 437.015625 570.996094 437.015625 C 574.113281 437.015625 576.488281 435.953125 578.132813 433.828125 C 580.367188 430.953125 581.488281 426.496094 581.488281 420.457031 C 581.488281 415.589844 580.722656 411.699219 579.191406 408.792969 C 577.980469 406.515625 576.425781 404.96875 574.523438 404.148438 C 573.179688 403.570313 570.949219 403.289063 567.835938 403.308594 M 553.375 439.085938 L 553.375 438.050781 L 554.636719 438.050781 C 555.734375 438.050781 556.578125 437.878906 557.164063 437.53125 C 557.753906 437.1875 558.1875 436.71875 558.46875 436.121094 C 558.632813 435.730469 558.71875 434.554688 558.71875 432.597656 L 558.71875 407.644531 C 558.71875 405.707031 558.617188 404.492188 558.410156 404.007813 C 558.207031 403.523438 557.789063 403.101563 557.164063 402.734375 C 556.539063 402.371094 555.695313 402.191406 554.636719 402.191406 L 553.375 402.191406 L 553.375 401.15625 L 570.355469 401.15625 C 574.886719 401.15625 578.53125 401.773438 581.289063 403.003906 C 584.664063 404.511719 587.226563 406.796875 588.96875 409.855469 C 590.710938 412.914063 591.585938 416.371094 591.585938 420.234375 C 591.585938 422.898438 591.15625 425.355469 590.296875 427.601563 C 589.441406 429.851563 588.332031 431.703125 586.96875 433.167969 C 585.609375 434.632813 584.035156 435.808594 582.257813 436.691406 C 580.476563 437.578125 578.296875 438.265625 575.726563 438.75 C 574.585938 438.972656 572.796875 439.085938 570.355469 439.085938 "/>
<path style=" stroke:none;fill-rule:nonzero;fill:rgb(10.998535%,10.998535%,10.598755%);fill-opacity:1;" d="M 608.367188 414.136719 C 607.414063 414.136719 606.601563 414.492188 605.921875 415.210938 C 605.238281 415.929688 604.789063 417.347656 604.578125 419.464844 C 604.359375 421.578125 604.253906 424.523438 604.253906 428.289063 C 604.253906 430.285156 604.386719 432.148438 604.644531 433.882813 C 604.851563 435.207031 605.289063 436.214844 605.960938 436.902344 C 606.632813 437.59375 607.394531 437.9375 608.253906 437.9375 C 609.09375 437.9375 609.792969 437.707031 610.351563 437.238281 C 611.078125 436.605469 611.5625 435.71875 611.808594 434.582031 C 612.179688 432.8125 612.367188 429.230469 612.367188 423.839844 C 612.367188 420.671875 612.1875 418.492188 611.835938 417.308594 C 611.480469 416.125 610.960938 415.261719 610.269531 414.722656 C 609.785156 414.332031 609.148438 414.136719 608.367188 414.136719 M 608.253906 412.148438 C 610.527344 412.148438 612.644531 412.734375 614.605469 413.910156 C 616.5625 415.085938 618.046875 416.753906 619.066406 418.917969 C 620.082031 421.082031 620.589844 423.449219 620.589844 426.023438 C 620.589844 429.734375 619.648438 432.839844 617.765625 435.335938 C 615.488281 438.359375 612.347656 439.867188 608.339844 439.867188 C 604.402344 439.867188 601.371094 438.488281 599.246094 435.730469 C 597.121094 432.96875 596.058594 429.769531 596.058594 426.136719 C 596.058594 422.386719 597.144531 419.117188 599.316406 416.328125 C 601.488281 413.542969 604.46875 412.148438 608.253906 412.148438 "/>
<path style=" stroke:none;fill-rule:nonzero;fill:rgb(10.998535%,10.998535%,10.598755%);fill-opacity:1;" d="M 649.820313 412.933594 L 649.820313 433.40625 C 649.820313 435.402344 650.007813 436.648438 650.378906 437.140625 C 650.753906 437.636719 651.507813 437.949219 652.644531 438.078125 L 652.644531 439.085938 L 641.988281 439.085938 L 641.988281 435.589844 C 640.738281 437.082031 639.488281 438.164063 638.238281 438.847656 C 636.988281 439.527344 635.59375 439.867188 634.042969 439.867188 C 632.570313 439.867188 631.261719 439.414063 630.113281 438.511719 C 628.96875 437.605469 628.199219 436.550781 627.808594 435.335938 C 627.414063 434.125 627.21875 432.007813 627.21875 428.988281 L 627.21875 418.609375 C 627.21875 416.632813 627.035156 415.402344 626.675781 414.917969 C 626.308594 414.433594 625.550781 414.117188 624.394531 413.96875 L 624.394531 412.933594 L 635.050781 412.933594 L 635.050781 430.804688 C 635.050781 432.671875 635.140625 433.871094 635.316406 434.414063 C 635.492188 434.953125 635.773438 435.363281 636.15625 435.644531 C 636.539063 435.925781 636.980469 436.0625 637.484375 436.0625 C 638.15625 436.0625 638.761719 435.886719 639.304688 435.53125 C 640.050781 435.046875 640.945313 434.070313 641.988281 432.597656 L 641.988281 418.609375 C 641.988281 416.632813 641.804688 415.402344 641.441406 414.917969 C 641.078125 414.433594 640.320313 414.117188 639.164063 413.96875 L 639.164063 412.933594 "/>
<path style=" stroke:none;fill-rule:nonzero;fill:rgb(10.998535%,10.998535%,10.598755%);fill-opacity:1;" d="M 667.050781 401.15625 L 667.050781 426.105469 L 673.121094 420.148438 C 674.371094 418.9375 675.148438 418.058594 675.457031 417.519531 C 675.765625 416.976563 675.917969 416.457031 675.917969 415.953125 C 675.917969 415.449219 675.714844 415.03125 675.304688 414.695313 C 674.894531 414.359375 674.089844 414.117188 672.898438 413.96875 L 672.898438 412.933594 L 684.617188 412.933594 L 684.617188 413.96875 C 683.496094 414.023438 682.519531 414.289063 681.679688 414.765625 C 680.839844 415.238281 679.199219 416.671875 676.757813 419.058594 L 673.902344 421.855469 L 680.058594 430.863281 C 682.539063 434.515625 684.011719 436.566406 684.476563 437.015625 C 685.109375 437.648438 685.914063 438.003906 686.882813 438.078125 L 686.882813 439.085938 L 673.371094 439.085938 L 673.371094 438.078125 C 673.96875 438.078125 674.402344 437.964844 674.671875 437.742188 C 674.941406 437.519531 675.078125 437.277344 675.078125 437.015625 C 675.078125 436.585938 674.6875 435.792969 673.902344 434.636719 L 668.730469 427.058594 L 667.050781 428.707031 L 667.050781 433.40625 C 667.050781 435.402344 667.238281 436.648438 667.609375 437.140625 C 667.984375 437.636719 668.746094 437.949219 669.902344 438.078125 L 669.902344 439.085938 L 656.394531 439.085938 L 656.394531 438.078125 C 657.496094 437.964844 658.277344 437.613281 658.746094 437.015625 C 659.0625 436.605469 659.21875 435.402344 659.21875 433.40625 L 659.21875 406.835938 C 659.21875 404.859375 659.039063 403.628906 658.671875 403.140625 C 658.3125 402.65625 657.550781 402.339844 656.394531 402.191406 L 656.394531 401.15625 "/>
<path style=" stroke:none;fill-rule:nonzero;fill:rgb(10.998535%,10.998535%,10.598755%);fill-opacity:1;" d="M 698.910156 401.15625 L 698.910156 426.105469 L 704.980469 420.148438 C 706.230469 418.9375 707.007813 418.058594 707.316406 417.519531 C 707.625 416.976563 707.777344 416.457031 707.777344 415.953125 C 707.777344 415.449219 707.570313 415.03125 707.160156 414.695313 C 706.75 414.359375 705.949219 414.117188 704.757813 413.96875 L 704.757813 412.933594 L 716.476563 412.933594 L 716.476563 413.96875 C 715.355469 414.023438 714.378906 414.289063 713.539063 414.765625 C 712.699219 415.238281 711.058594 416.671875 708.617188 419.058594 L 705.761719 421.855469 L 711.917969 430.863281 C 714.398438 434.515625 715.871094 436.566406 716.335938 437.015625 C 716.96875 437.648438 717.773438 438.003906 718.742188 438.078125 L 718.742188 439.085938 L 705.230469 439.085938 L 705.230469 438.078125 C 705.828125 438.078125 706.261719 437.964844 706.53125 437.742188 C 706.800781 437.519531 706.9375 437.277344 706.9375 437.015625 C 706.9375 436.585938 706.546875 435.792969 705.761719 434.636719 L 700.589844 427.058594 L 698.910156 428.707031 L 698.910156 433.40625 C 698.910156 435.402344 699.097656 436.648438 699.46875 437.140625 C 699.84375 437.636719 700.605469 437.949219 701.761719 438.078125 L 701.761719 439.085938 L 688.253906 439.085938 L 688.253906 438.078125 C 689.351563 437.964844 690.136719 437.613281 690.601563 437.015625 C 690.921875 436.605469 691.078125 435.402344 691.078125 433.40625 L 691.078125 406.835938 C 691.078125 404.859375 690.898438 403.628906 690.53125 403.140625 C 690.167969 402.65625 689.410156 402.339844 688.253906 402.191406 L 688.253906 401.15625 "/>
<path style=" stroke:none;fill-rule:nonzero;fill:rgb(10.998535%,10.998535%,10.598755%);fill-opacity:1;" d="M 734.574219 433.183594 L 734.574219 424.429688 C 732.316406 425.753906 730.640625 427.167969 729.539063 428.679688 C 728.8125 429.6875 728.449219 430.703125 728.449219 431.726563 C 728.449219 432.585938 728.757813 433.34375 729.371094 433.992188 C 729.839844 434.496094 730.488281 434.75 731.328125 434.75 C 732.261719 434.75 733.34375 434.226563 734.574219 433.183594 M 734.574219 435.226563 C 731.386719 438.039063 728.523438 439.449219 725.988281 439.449219 C 724.496094 439.449219 723.253906 438.960938 722.265625 437.980469 C 721.277344 437 720.785156 435.773438 720.785156 434.300781 C 720.785156 432.308594 721.640625 430.511719 723.359375 428.917969 C 725.074219 427.320313 728.8125 425.203125 734.574219 422.554688 L 734.574219 419.925781 C 734.574219 417.949219 734.464844 416.703125 734.253906 416.191406 C 734.039063 415.675781 733.632813 415.230469 733.035156 414.847656 C 732.4375 414.464844 731.769531 414.273438 731.023438 414.273438 C 729.808594 414.273438 728.8125 414.546875 728.027344 415.085938 C 727.542969 415.421875 727.300781 415.8125 727.300781 416.261719 C 727.300781 416.652344 727.5625 417.136719 728.085938 417.714844 C 728.792969 418.515625 729.148438 419.289063 729.148438 420.035156 C 729.148438 420.949219 728.808594 421.726563 728.128906 422.371094 C 727.445313 423.015625 726.554688 423.335938 725.453125 423.335938 C 724.28125 423.335938 723.296875 422.984375 722.503906 422.273438 C 721.710938 421.566406 721.316406 420.734375 721.316406 419.785156 C 721.316406 418.441406 721.847656 417.160156 722.910156 415.9375 C 723.972656 414.71875 725.453125 413.78125 727.355469 413.128906 C 729.257813 412.476563 731.234375 412.148438 733.289063 412.148438 C 735.765625 412.148438 737.730469 412.675781 739.175781 413.726563 C 740.621094 414.78125 741.558594 415.925781 741.984375 417.15625 C 742.246094 417.9375 742.378906 419.738281 742.378906 422.554688 L 742.378906 432.707031 C 742.378906 433.902344 742.425781 434.652344 742.519531 434.960938 C 742.609375 435.265625 742.75 435.496094 742.9375 435.644531 C 743.125 435.792969 743.339844 435.867188 743.582031 435.867188 C 744.066406 435.867188 744.558594 435.523438 745.0625 434.832031 L 745.902344 435.503906 C 744.96875 436.886719 744.003906 437.886719 743.007813 438.511719 C 742.007813 439.136719 740.878906 439.449219 739.609375 439.449219 C 738.117188 439.449219 736.953125 439.097656 736.113281 438.398438 C 735.273438 437.699219 734.761719 436.640625 734.574219 435.226563 "/>
<path style=" stroke:none;fill-rule:nonzero;fill:rgb(10.998535%,10.998535%,10.598755%);fill-opacity:1;" d="M 759.019531 401.15625 L 759.019531 433.660156 C 759.019531 435.503906 759.234375 436.683594 759.664063 437.195313 C 760.09375 437.710938 760.933594 438.003906 762.183594 438.078125 L 762.183594 439.085938 L 748.054688 439.085938 L 748.054688 438.078125 C 749.214844 438.039063 750.070313 437.703125 750.628906 437.070313 C 751.003906 436.640625 751.1875 435.503906 751.1875 433.660156 L 751.1875 406.582031 C 751.1875 404.753906 750.976563 403.585938 750.546875 403.070313 C 750.117188 402.558594 749.289063 402.265625 748.054688 402.191406 L 748.054688 401.15625 "/>
<path style=" stroke:none;fill-rule:nonzero;fill:rgb(10.998535%,10.998535%,10.598755%);fill-opacity:1;" d="M 770.992188 400.261719 C 772.203125 400.261719 773.230469 400.683594 774.070313 401.53125 C 774.90625 402.382813 775.328125 403.402344 775.328125 404.597656 C 775.328125 405.789063 774.902344 406.804688 774.054688 407.644531 C 773.207031 408.484375 772.183594 408.902344 770.992188 408.902344 C 769.800781 408.902344 768.78125 408.484375 767.941406 407.644531 C 767.105469 406.804688 766.683594 405.789063 766.683594 404.597656 C 766.683594 403.402344 767.105469 402.382813 767.941406 401.53125 C 768.78125 400.683594 769.800781 400.261719 770.992188 400.261719 M 774.90625 412.933594 L 774.90625 433.660156 C 774.90625 435.503906 775.121094 436.683594 775.550781 437.195313 C 775.980469 437.710938 776.820313 438.003906 778.070313 438.078125 L 778.070313 439.085938 L 763.941406 439.085938 L 763.941406 438.078125 C 765.097656 438.039063 765.957031 437.703125 766.515625 437.070313 C 766.890625 436.640625 767.074219 435.503906 767.074219 433.660156 L 767.074219 418.386719 C 767.074219 416.539063 766.863281 415.359375 766.433594 414.847656 C 766.003906 414.335938 765.175781 414.042969 763.941406 413.96875 L 763.941406 412.933594 "/>
</g>
</svg>
